<mxfile host="app.diagrams.net" modified="2021-11-19T12:48:20.820Z" agent="5.0 (Windows NT 10.0; Win64; x64) AppleWebKit/537.36 (KHTML, like Gecko) Chrome/96.0.4664.45 Safari/537.36" etag="xSxoUaLWlAAbNkAfRGrf" version="15.7.3" type="github">
  <diagram id="snEOONconb2m-LRFP6U-" name="Page-1">
    <mxGraphModel dx="782" dy="432" grid="1" gridSize="10" guides="1" tooltips="1" connect="1" arrows="1" fold="1" page="1" pageScale="1" pageWidth="850" pageHeight="1100" math="0" shadow="0">
      <root>
        <mxCell id="0" />
        <mxCell id="1" parent="0" />
        <mxCell id="aDxB4Li0WQIJteykIi52-1" value="&lt;b&gt;A&lt;/b&gt;" style="ellipse;whiteSpace=wrap;html=1;aspect=fixed;fillColor=#dae8fc;strokeColor=#6c8ebf;" vertex="1" parent="1">
          <mxGeometry x="70" y="100" width="80" height="80" as="geometry" />
        </mxCell>
        <mxCell id="aDxB4Li0WQIJteykIi52-2" value="&lt;b&gt;B&lt;/b&gt;" style="ellipse;whiteSpace=wrap;html=1;aspect=fixed;fillColor=#dae8fc;strokeColor=#6c8ebf;" vertex="1" parent="1">
          <mxGeometry x="70" y="220" width="80" height="80" as="geometry" />
        </mxCell>
        <mxCell id="aDxB4Li0WQIJteykIi52-3" value="&lt;b&gt;C&lt;/b&gt;" style="ellipse;whiteSpace=wrap;html=1;aspect=fixed;fillColor=#dae8fc;strokeColor=#6c8ebf;" vertex="1" parent="1">
          <mxGeometry x="240" y="20" width="80" height="80" as="geometry" />
        </mxCell>
        <mxCell id="aDxB4Li0WQIJteykIi52-4" value="&lt;b&gt;E&lt;/b&gt;" style="ellipse;whiteSpace=wrap;html=1;aspect=fixed;fillColor=#dae8fc;strokeColor=#6c8ebf;" vertex="1" parent="1">
          <mxGeometry x="240" y="320" width="80" height="80" as="geometry" />
        </mxCell>
        <mxCell id="aDxB4Li0WQIJteykIi52-5" value="&lt;b&gt;D&lt;/b&gt;" style="ellipse;whiteSpace=wrap;html=1;aspect=fixed;fillColor=#dae8fc;strokeColor=#6c8ebf;" vertex="1" parent="1">
          <mxGeometry x="240" y="190" width="80" height="80" as="geometry" />
        </mxCell>
        <mxCell id="aDxB4Li0WQIJteykIi52-6" value="&lt;b&gt;F&lt;/b&gt;" style="ellipse;whiteSpace=wrap;html=1;aspect=fixed;fillColor=#dae8fc;strokeColor=#6c8ebf;" vertex="1" parent="1">
          <mxGeometry x="380" y="90" width="80" height="80" as="geometry" />
        </mxCell>
        <mxCell id="aDxB4Li0WQIJteykIi52-7" value="&lt;b&gt;G&lt;/b&gt;" style="ellipse;whiteSpace=wrap;html=1;aspect=fixed;fillColor=#dae8fc;strokeColor=#6c8ebf;" vertex="1" parent="1">
          <mxGeometry x="380" y="310" width="80" height="80" as="geometry" />
        </mxCell>
        <mxCell id="aDxB4Li0WQIJteykIi52-8" value="&lt;b&gt;H&lt;/b&gt;" style="ellipse;whiteSpace=wrap;html=1;aspect=fixed;fillColor=#dae8fc;strokeColor=#6c8ebf;" vertex="1" parent="1">
          <mxGeometry x="520" y="140" width="80" height="80" as="geometry" />
        </mxCell>
        <mxCell id="aDxB4Li0WQIJteykIi52-9" value="&lt;b&gt;I&lt;/b&gt;" style="ellipse;whiteSpace=wrap;html=1;aspect=fixed;fillColor=#dae8fc;strokeColor=#6c8ebf;" vertex="1" parent="1">
          <mxGeometry x="520" y="300" width="80" height="80" as="geometry" />
        </mxCell>
        <mxCell id="aDxB4Li0WQIJteykIi52-10" value="&lt;b&gt;J&lt;/b&gt;" style="ellipse;whiteSpace=wrap;html=1;aspect=fixed;fillColor=#dae8fc;strokeColor=#6c8ebf;" vertex="1" parent="1">
          <mxGeometry x="620" y="220" width="80" height="80" as="geometry" />
        </mxCell>
        <mxCell id="aDxB4Li0WQIJteykIi52-11" value="&lt;b&gt;K&lt;/b&gt;" style="ellipse;whiteSpace=wrap;html=1;aspect=fixed;fillColor=#dae8fc;strokeColor=#6c8ebf;" vertex="1" parent="1">
          <mxGeometry x="750" y="220" width="80" height="80" as="geometry" />
        </mxCell>
        <mxCell id="aDxB4Li0WQIJteykIi52-12" value="" style="endArrow=classic;html=1;rounded=0;exitX=0.967;exitY=0.3;exitDx=0;exitDy=0;exitPerimeter=0;entryX=0.017;entryY=0.6;entryDx=0;entryDy=0;entryPerimeter=0;fillColor=#f8cecc;strokeColor=#b85450;" edge="1" parent="1" source="aDxB4Li0WQIJteykIi52-1" target="aDxB4Li0WQIJteykIi52-3">
          <mxGeometry width="50" height="50" relative="1" as="geometry">
            <mxPoint x="170" y="130" as="sourcePoint" />
            <mxPoint x="220" y="80" as="targetPoint" />
          </mxGeometry>
        </mxCell>
        <mxCell id="aDxB4Li0WQIJteykIi52-13" value="" style="endArrow=classic;html=1;rounded=0;exitX=0.975;exitY=0.333;exitDx=0;exitDy=0;exitPerimeter=0;entryX=0.029;entryY=0.425;entryDx=0;entryDy=0;entryPerimeter=0;" edge="1" parent="1" source="aDxB4Li0WQIJteykIi52-1" target="aDxB4Li0WQIJteykIi52-6">
          <mxGeometry width="50" height="50" relative="1" as="geometry">
            <mxPoint x="170" y="150" as="sourcePoint" />
            <mxPoint x="220" y="100" as="targetPoint" />
          </mxGeometry>
        </mxCell>
        <mxCell id="aDxB4Li0WQIJteykIi52-15" value="" style="endArrow=classic;html=1;rounded=0;exitX=0.992;exitY=0.4;exitDx=0;exitDy=0;exitPerimeter=0;entryX=0;entryY=0;entryDx=0;entryDy=0;" edge="1" parent="1" source="aDxB4Li0WQIJteykIi52-1" target="aDxB4Li0WQIJteykIi52-5">
          <mxGeometry width="50" height="50" relative="1" as="geometry">
            <mxPoint x="158" y="126.63999999999999" as="sourcePoint" />
            <mxPoint x="397.31999999999994" y="144" as="targetPoint" />
          </mxGeometry>
        </mxCell>
        <mxCell id="aDxB4Li0WQIJteykIi52-16" value="" style="endArrow=classic;html=1;rounded=0;exitX=1;exitY=0.5;exitDx=0;exitDy=0;entryX=0;entryY=0.5;entryDx=0;entryDy=0;" edge="1" parent="1" source="aDxB4Li0WQIJteykIi52-2" target="aDxB4Li0WQIJteykIi52-5">
          <mxGeometry width="50" height="50" relative="1" as="geometry">
            <mxPoint x="159.36" y="142" as="sourcePoint" />
            <mxPoint x="261.7157287525381" y="211.7157287525381" as="targetPoint" />
          </mxGeometry>
        </mxCell>
        <mxCell id="aDxB4Li0WQIJteykIi52-17" value="" style="endArrow=classic;html=1;rounded=0;exitX=0.5;exitY=1;exitDx=0;exitDy=0;" edge="1" parent="1" source="aDxB4Li0WQIJteykIi52-5" target="aDxB4Li0WQIJteykIi52-4">
          <mxGeometry width="50" height="50" relative="1" as="geometry">
            <mxPoint x="160" y="270" as="sourcePoint" />
            <mxPoint x="170" y="340" as="targetPoint" />
          </mxGeometry>
        </mxCell>
        <mxCell id="aDxB4Li0WQIJteykIi52-18" value="" style="endArrow=classic;html=1;rounded=0;entryX=0;entryY=0;entryDx=0;entryDy=0;exitX=0.5;exitY=1;exitDx=0;exitDy=0;" edge="1" parent="1" source="aDxB4Li0WQIJteykIi52-5" target="aDxB4Li0WQIJteykIi52-7">
          <mxGeometry width="50" height="50" relative="1" as="geometry">
            <mxPoint x="180" y="280" as="sourcePoint" />
            <mxPoint x="260" y="250" as="targetPoint" />
          </mxGeometry>
        </mxCell>
        <mxCell id="aDxB4Li0WQIJteykIi52-19" value="" style="endArrow=classic;html=1;rounded=0;entryX=0.283;entryY=0.95;entryDx=0;entryDy=0;entryPerimeter=0;exitX=1;exitY=0;exitDx=0;exitDy=0;" edge="1" parent="1" source="aDxB4Li0WQIJteykIi52-4" target="aDxB4Li0WQIJteykIi52-6">
          <mxGeometry width="50" height="50" relative="1" as="geometry">
            <mxPoint x="310" y="330" as="sourcePoint" />
            <mxPoint x="270" y="260" as="targetPoint" />
          </mxGeometry>
        </mxCell>
        <mxCell id="aDxB4Li0WQIJteykIi52-20" value="" style="endArrow=classic;html=1;rounded=0;exitX=1;exitY=1;exitDx=0;exitDy=0;entryX=0.35;entryY=0.033;entryDx=0;entryDy=0;entryPerimeter=0;fillColor=#f8cecc;strokeColor=#b85450;" edge="1" parent="1" source="aDxB4Li0WQIJteykIi52-3" target="aDxB4Li0WQIJteykIi52-7">
          <mxGeometry width="50" height="50" relative="1" as="geometry">
            <mxPoint x="157.36" y="134" as="sourcePoint" />
            <mxPoint x="251.36" y="78" as="targetPoint" />
          </mxGeometry>
        </mxCell>
      </root>
    </mxGraphModel>
  </diagram>
</mxfile>
